<?xml version="1.0" encoding="utf-8"?>
<!-- Generator: Adobe Illustrator 21.0.0, SVG Export Plug-In . SVG Version: 6.00 Build 0)  -->
<svg version="1.1" id="Layer_1" xmlns="http://www.w3.org/2000/svg" xmlns:xlink="http://www.w3.org/1999/xlink" x="0px" y="0px"
	 viewBox="0 0 8222 5375.7" style="enable-background:new 0 0 8222 5375.7;" xml:space="preserve">
<style type="text/css">
	.st0{stroke:#FFFFFF;stroke-miterlimit:10;}
</style>
<path class="st0" d="M7993.5,152.5c-567-491.6-2010.9,244.9-3225,1645.2c-249.4,287.7-469.8,581-657.5,869.8
	c-187.7-288.8-408.1-582.1-657.5-869.8C2239.4,397.4,795.5-339.2,228.5,152.5S186,2177.8,1400.1,3578
	c770.7,888.9,1634.1,1510.3,2306.9,1719.9c113.1,59,249.6,83.6,404,76.6c154.4,7,290.8-17.6,404-76.6
	c672.8-209.6,1536.2-831,2306.9-1719.9C8036,2177.8,8560.6,644.1,7993.5,152.5z"/>
</svg>
